<?xml version="1.0" encoding="UTF-8" standalone="no"?>
<!DOCTYPE svg PUBLIC "-//W3C//DTD SVG 1.1//EN" "http://www.w3.org/Graphics/SVG/1.1/DTD/svg11.dtd">
<svg width="100%" height="100%" viewBox="0 0 800 200" version="1.1" xmlns="http://www.w3.org/2000/svg" xmlns:xlink="http://www.w3.org/1999/xlink" xml:space="preserve" xmlns:serif="http://www.serif.com/" style="fill-rule:evenodd;clip-rule:evenodd;stroke-linejoin:round;stroke-miterlimit:2;">
    <g transform="matrix(0.174577,0,0,0.174577,610.724,48.8225)">
        <g id="React-Logo" serif:id="React Logo" transform="matrix(1.96662,0,0,1.96662,-3925.93,-289.855)">
            <g transform="matrix(1,0,0,1,114.562,0)">
                <path d="M666.3,296.5C666.3,264 625.6,233.2 563.2,214.1C577.6,150.5 571.2,99.9 543,83.7C536.5,79.9 528.9,78.1 520.6,78.1L520.6,100.4C525.2,100.4 528.9,101.3 532,103C545.6,110.8 551.5,140.5 546.9,178.7C545.8,188.1 544,198 541.8,208.1C522.2,203.3 500.8,199.6 478.3,197.2C464.8,178.7 450.8,161.9 436.7,147.2C469.3,116.9 499.9,100.3 520.7,100.3L520.7,78C493.2,78 457.2,97.6 420.8,131.6C384.4,97.8 348.4,78.4 320.9,78.4L320.9,100.7C341.6,100.7 372.3,117.2 404.9,147.3C390.9,162 376.9,178.7 363.6,197.2C341,199.6 319.6,203.3 300,208.2C297.7,198.2 296,188.5 294.8,179.2C290.1,141 295.9,111.3 309.4,103.4C312.4,101.6 316.3,100.8 320.9,100.8L320.9,78.5C312.5,78.5 304.9,80.3 298.3,84.1C270.2,100.3 263.9,150.8 278.4,214.2C216.2,233.4 175.7,264.1 175.7,296.5C175.7,329 216.4,359.8 278.8,378.9C264.4,442.5 270.8,493.1 299,509.3C305.5,513.1 313.1,514.9 321.5,514.9C349,514.9 385,495.3 421.4,461.3C457.8,495.1 493.8,514.5 521.3,514.5C529.7,514.5 537.3,512.7 543.9,508.9C572,492.7 578.3,442.2 563.8,378.8C625.8,359.7 666.3,328.9 666.3,296.5ZM536.1,229.8C532.4,242.7 527.8,256 522.6,269.3C518.5,261.3 514.2,253.3 509.5,245.3C504.9,237.3 500,229.5 495.1,221.9C509.3,224 523,226.6 536.1,229.8ZM490.3,336.3C482.5,349.8 474.5,362.6 466.2,374.5C451.3,375.8 436.2,376.5 421,376.5C405.9,376.5 390.8,375.8 376,374.6C367.7,362.7 359.6,350 351.8,336.6C344.2,323.5 337.3,310.2 331,296.8C337.2,283.4 344.2,270 351.7,256.9C359.5,243.4 367.5,230.6 375.8,218.7C390.7,217.4 405.8,216.7 421,216.7C436.1,216.7 451.2,217.4 466,218.6C474.3,230.5 482.4,243.2 490.2,256.6C497.8,269.7 504.7,283 511,296.4C504.7,309.8 497.8,323.2 490.3,336.3ZM522.6,323.3C528,336.7 532.6,350.1 536.4,363.1C523.3,366.3 509.5,369 495.2,371.1C500.1,363.4 505,355.5 509.6,347.4C514.2,339.4 518.5,331.3 522.6,323.3ZM421.2,430C411.9,420.4 402.6,409.7 393.4,398C402.4,398.4 411.6,398.7 420.9,398.7C430.3,398.7 439.6,398.5 448.7,398C439.7,409.7 430.4,420.4 421.2,430ZM346.8,371.1C332.6,369 318.9,366.4 305.8,363.2C309.5,350.3 314.1,337 319.3,323.7C323.4,331.7 327.7,339.7 332.4,347.7C337.1,355.7 341.9,363.5 346.8,371.1ZM420.7,163C430,172.6 439.3,183.3 448.5,195C439.5,194.6 430.3,194.3 421,194.3C411.6,194.3 402.3,194.5 393.2,195C402.2,183.3 411.5,172.6 420.7,163ZM346.7,221.9C341.8,229.6 336.9,237.5 332.3,245.6C327.7,253.6 323.4,261.6 319.3,269.6C313.9,256.2 309.3,242.8 305.5,229.8C318.6,226.7 332.4,224 346.7,221.9ZM256.2,347.1C220.8,332 197.9,312.2 197.9,296.5C197.9,280.8 220.8,260.9 256.2,245.9C264.8,242.2 274.2,238.9 283.9,235.8C289.6,255.4 297.1,275.8 306.4,296.7C297.2,317.5 289.8,337.8 284.2,357.3C274.3,354.2 264.9,350.8 256.2,347.1ZM310,490C296.4,482.2 290.5,452.5 295.1,414.3C296.2,404.9 298,395 300.2,384.9C319.8,389.7 341.2,393.4 363.7,395.8C377.2,414.3 391.2,431.1 405.3,445.8C372.7,476.1 342.1,492.7 321.3,492.7C316.8,492.6 313,491.7 310,490ZM547.2,413.8C551.9,452 546.1,481.7 532.6,489.6C529.6,491.4 525.7,492.2 521.1,492.2C500.4,492.2 469.7,475.7 437.1,445.6C451.1,430.9 465.1,414.2 478.4,395.7C501,393.3 522.4,389.6 542,384.7C544.3,394.8 546.1,404.5 547.2,413.8ZM585.7,347.1C577.1,350.8 567.7,354.1 558,357.2C552.3,337.6 544.8,317.2 535.5,296.3C544.7,275.5 552.1,255.2 557.7,235.7C567.6,238.8 577,242.2 585.8,245.9C621.2,261 644.1,280.8 644.1,296.5C644,312.2 621.1,332.1 585.7,347.1Z" style="fill:rgb(193,193,193);fill-rule:nonzero;"/>
            </g>
            <g transform="matrix(1,0,0,1,114.562,0)">
                <circle cx="420.9" cy="296.5" r="45.7" style="fill:rgb(193,193,193);"/>
            </g>
            <g transform="matrix(1.06994,0.624346,-0.624346,1.06994,424.222,-127.162)">
                <g id="second-hand">
                    <path d="M268,98C268,88.1 259.9,80 250,80C240.1,80 232,88.1 232,98C232,106.9 238.5,114.3 247,115.7L247,241.5C243.5,242.7 241,246.1 241,250C241,253.9 243.5,257.2 247,258.5L247,329L253,329L253,258.5C256.5,257.3 259,253.9 259,250C259,246.1 256.5,242.8 253,241.5L253,115.7C261.5,114.3 268,106.9 268,98Z" style="fill:rgb(216,35,42);fill-rule:nonzero;"/>
                </g>
            </g>
        </g>
        <g transform="matrix(5.85968,0,0,6.17511,-3548.42,-322.892)">
            <rect x="214.288" y="45.401" width="330.93" height="51.314" style="fill:white;fill-opacity:0.5;"/>
        </g>
        <g transform="matrix(5.72812,0,0,5.72812,-3824.43,-240.026)">
            <g transform="matrix(64,0,0,64,270.64,85.638)">
                <path d="M0.074,-0.717L0.213,-0.717L0.419,-0.111L0.624,-0.717L0.761,-0.717L0.761,-0L0.669,-0L0.669,-0.423C0.669,-0.438 0.669,-0.462 0.67,-0.496C0.671,-0.53 0.671,-0.566 0.671,-0.605L0.466,-0L0.37,-0L0.164,-0.605L0.164,-0.583C0.164,-0.565 0.164,-0.539 0.165,-0.503C0.166,-0.467 0.167,-0.44 0.167,-0.423L0.167,-0L0.074,-0L0.074,-0.717Z" style="fill:rgb(29,35,48);fill-rule:nonzero;"/>
            </g>
            <g transform="matrix(64,0,0,64,322.032,85.638)">
                <path d="M0.386,-0.737C0.512,-0.737 0.606,-0.696 0.667,-0.615C0.715,-0.551 0.738,-0.47 0.738,-0.371C0.738,-0.264 0.711,-0.175 0.657,-0.104C0.593,-0.021 0.502,0.021 0.384,0.021C0.273,0.021 0.187,-0.015 0.124,-0.088C0.067,-0.159 0.039,-0.248 0.039,-0.355C0.039,-0.452 0.063,-0.535 0.111,-0.604C0.173,-0.693 0.265,-0.737 0.386,-0.737ZM0.396,-0.066C0.481,-0.066 0.543,-0.097 0.581,-0.158C0.62,-0.219 0.639,-0.29 0.639,-0.37C0.639,-0.454 0.617,-0.522 0.573,-0.573C0.528,-0.625 0.468,-0.65 0.392,-0.65C0.317,-0.65 0.257,-0.625 0.21,-0.574C0.163,-0.523 0.14,-0.448 0.14,-0.349C0.14,-0.269 0.16,-0.202 0.2,-0.148C0.24,-0.093 0.305,-0.066 0.396,-0.066Z" style="fill:rgb(29,35,48);fill-rule:nonzero;"/>
            </g>
            <g transform="matrix(64,0,0,64,369.893,85.638)">
                <path d="M0.076,-0.717L0.191,-0.717L0.553,-0.136L0.553,-0.717L0.646,-0.717L0.646,-0L0.537,-0L0.169,-0.581L0.169,-0L0.076,-0L0.076,-0.717Z" style="fill:rgb(29,35,48);fill-rule:nonzero;"/>
            </g>
            <g transform="matrix(64,0,0,64,414.192,85.638)">
                <path d="M0.352,-0.083C0.384,-0.083 0.411,-0.086 0.433,-0.093C0.47,-0.106 0.501,-0.13 0.525,-0.167C0.545,-0.195 0.558,-0.233 0.567,-0.278C0.572,-0.305 0.574,-0.33 0.574,-0.353C0.574,-0.442 0.557,-0.511 0.521,-0.56C0.486,-0.609 0.429,-0.634 0.351,-0.634L0.178,-0.634L0.178,-0.083L0.352,-0.083ZM0.081,-0.717L0.371,-0.717C0.47,-0.717 0.546,-0.682 0.601,-0.612C0.649,-0.549 0.673,-0.468 0.673,-0.37C0.673,-0.293 0.659,-0.225 0.63,-0.163C0.58,-0.054 0.493,-0 0.37,-0L0.081,-0L0.081,-0.717Z" style="fill:rgb(29,35,48);fill-rule:nonzero;"/>
            </g>
            <g transform="matrix(64,0,0,64,458.491,85.638)">
                <path d="M0.444,-0.294L0.335,-0.611L0.22,-0.294L0.444,-0.294ZM0.285,-0.717L0.395,-0.717L0.655,-0L0.548,-0L0.476,-0.215L0.192,-0.215L0.114,-0L0.015,-0L0.285,-0.717Z" style="fill:rgb(29,35,48);fill-rule:nonzero;"/>
            </g>
            <g transform="matrix(64,0,0,64,499.258,85.638)">
                <rect x="0.098" y="-0.717" width="0.098" height="0.717" style="fill:rgb(29,35,48);fill-rule:nonzero;"/>
            </g>
            <g transform="matrix(64,0,0,64,515.12,85.638)">
                <path d="M0.076,-0.717L0.191,-0.717L0.553,-0.136L0.553,-0.717L0.646,-0.717L0.646,-0L0.537,-0L0.169,-0.581L0.169,-0L0.076,-0L0.076,-0.717Z" style="fill:rgb(29,35,48);fill-rule:nonzero;"/>
            </g>
            <g transform="matrix(64,0,0,64,559.418,85.638)">
                <path d="M0.085,-0.717L0.608,-0.717L0.608,-0.629L0.18,-0.629L0.18,-0.412L0.576,-0.412L0.576,-0.329L0.18,-0.329L0.18,-0.085L0.616,-0.085L0.616,-0L0.085,-0L0.085,-0.717Z" style="fill:rgb(29,35,48);fill-rule:nonzero;"/>
            </g>
        </g>
        <g transform="matrix(5.72812,0,0,5.72812,-3813.51,-55.212)">
            <g transform="matrix(32,0,0,32,270.64,85.638)">
                <path d="M0.227,-0.595L0.227,-0.401L0.397,-0.401C0.431,-0.401 0.456,-0.405 0.473,-0.413C0.503,-0.427 0.518,-0.454 0.518,-0.494C0.518,-0.538 0.504,-0.567 0.475,-0.582C0.458,-0.59 0.434,-0.595 0.401,-0.595L0.227,-0.595ZM0.433,-0.72C0.483,-0.719 0.522,-0.713 0.549,-0.701C0.576,-0.69 0.599,-0.673 0.618,-0.651C0.634,-0.633 0.646,-0.612 0.655,-0.59C0.664,-0.568 0.669,-0.543 0.669,-0.515C0.669,-0.48 0.66,-0.447 0.643,-0.414C0.626,-0.381 0.597,-0.357 0.558,-0.344C0.591,-0.33 0.614,-0.311 0.628,-0.287C0.642,-0.262 0.649,-0.225 0.649,-0.174L0.649,-0.126C0.649,-0.093 0.65,-0.071 0.653,-0.059C0.657,-0.041 0.666,-0.027 0.68,-0.018L0.68,-0L0.515,-0C0.51,-0.016 0.507,-0.029 0.505,-0.039C0.501,-0.059 0.499,-0.079 0.499,-0.101L0.498,-0.167C0.497,-0.213 0.489,-0.244 0.472,-0.259C0.456,-0.275 0.426,-0.282 0.382,-0.282L0.227,-0.282L0.227,-0L0.08,-0L0.08,-0.72L0.433,-0.72Z" style="fill:rgb(193,193,193);fill-rule:nonzero;"/>
            </g>
            <g transform="matrix(32,0,0,32,292.789,85.638)">
                <path d="M0.275,-0.432C0.243,-0.432 0.218,-0.422 0.2,-0.401C0.182,-0.381 0.171,-0.354 0.167,-0.319L0.383,-0.319C0.381,-0.356 0.369,-0.384 0.349,-0.403C0.329,-0.422 0.305,-0.432 0.275,-0.432ZM0.275,-0.546C0.319,-0.546 0.359,-0.538 0.395,-0.521C0.43,-0.505 0.459,-0.479 0.482,-0.443C0.503,-0.411 0.517,-0.375 0.523,-0.333C0.527,-0.309 0.528,-0.273 0.527,-0.228L0.163,-0.228C0.165,-0.174 0.182,-0.137 0.213,-0.115C0.233,-0.102 0.256,-0.095 0.283,-0.095C0.311,-0.095 0.335,-0.103 0.353,-0.12C0.362,-0.128 0.371,-0.141 0.378,-0.156L0.521,-0.156C0.517,-0.125 0.5,-0.093 0.471,-0.06C0.426,-0.008 0.362,0.018 0.28,0.018C0.212,0.018 0.152,-0.004 0.101,-0.048C0.049,-0.091 0.023,-0.162 0.023,-0.261C0.023,-0.353 0.046,-0.424 0.093,-0.473C0.14,-0.522 0.2,-0.546 0.275,-0.546Z" style="fill:rgb(193,193,193);fill-rule:nonzero;"/>
            </g>
            <g transform="matrix(32,0,0,32,309.626,85.638)">
                <path d="M0.173,-0.17C0.176,-0.145 0.183,-0.128 0.192,-0.117C0.21,-0.099 0.242,-0.089 0.288,-0.089C0.315,-0.089 0.337,-0.093 0.353,-0.102C0.369,-0.11 0.377,-0.122 0.377,-0.138C0.377,-0.154 0.371,-0.166 0.358,-0.174C0.345,-0.182 0.297,-0.196 0.213,-0.216C0.153,-0.231 0.11,-0.25 0.085,-0.272C0.061,-0.294 0.048,-0.326 0.048,-0.368C0.048,-0.417 0.068,-0.459 0.106,-0.494C0.145,-0.53 0.199,-0.547 0.269,-0.547C0.335,-0.547 0.39,-0.534 0.431,-0.508C0.473,-0.481 0.497,-0.435 0.503,-0.37L0.364,-0.37C0.362,-0.388 0.357,-0.402 0.349,-0.413C0.334,-0.431 0.308,-0.441 0.271,-0.441C0.241,-0.441 0.219,-0.436 0.206,-0.427C0.193,-0.417 0.187,-0.406 0.187,-0.394C0.187,-0.378 0.194,-0.366 0.208,-0.359C0.221,-0.351 0.27,-0.339 0.353,-0.32C0.408,-0.307 0.449,-0.288 0.477,-0.261C0.504,-0.235 0.518,-0.201 0.518,-0.161C0.518,-0.108 0.498,-0.065 0.459,-0.032C0.42,0.001 0.359,0.018 0.277,0.018C0.194,0.018 0.132,0 0.092,-0.035C0.052,-0.07 0.032,-0.115 0.032,-0.17L0.173,-0.17Z" style="fill:rgb(193,193,193);fill-rule:nonzero;"/>
            </g>
            <g transform="matrix(32,0,0,32,326.463,85.638)">
                <path d="M0.432,-0.266C0.432,-0.307 0.422,-0.343 0.404,-0.375C0.385,-0.407 0.354,-0.422 0.313,-0.422C0.262,-0.422 0.227,-0.398 0.208,-0.351C0.199,-0.325 0.194,-0.293 0.194,-0.254C0.194,-0.192 0.21,-0.149 0.243,-0.124C0.263,-0.109 0.286,-0.102 0.313,-0.102C0.351,-0.102 0.381,-0.117 0.401,-0.146C0.421,-0.176 0.432,-0.216 0.432,-0.266ZM0.353,-0.544C0.415,-0.544 0.467,-0.521 0.51,-0.475C0.554,-0.429 0.575,-0.362 0.575,-0.273C0.575,-0.179 0.554,-0.108 0.512,-0.059C0.47,-0.009 0.416,0.015 0.349,0.015C0.307,0.015 0.272,0.005 0.244,-0.017C0.228,-0.028 0.213,-0.045 0.199,-0.068L0.199,0.209L0.061,0.209L0.061,-0.532L0.194,-0.532L0.194,-0.454C0.209,-0.477 0.225,-0.495 0.242,-0.508C0.273,-0.532 0.31,-0.544 0.353,-0.544Z" style="fill:rgb(193,193,193);fill-rule:nonzero;"/>
            </g>
            <g transform="matrix(32,0,0,32,345.05,85.638)">
                <path d="M0.304,-0.098C0.344,-0.098 0.376,-0.113 0.397,-0.142C0.419,-0.171 0.43,-0.212 0.43,-0.265C0.43,-0.319 0.419,-0.36 0.397,-0.388C0.376,-0.417 0.344,-0.432 0.304,-0.432C0.263,-0.432 0.232,-0.417 0.21,-0.388C0.188,-0.36 0.177,-0.319 0.177,-0.265C0.177,-0.212 0.188,-0.171 0.21,-0.142C0.232,-0.113 0.263,-0.098 0.304,-0.098ZM0.576,-0.265C0.576,-0.187 0.554,-0.12 0.509,-0.065C0.464,-0.009 0.396,0.019 0.304,0.019C0.213,0.019 0.145,-0.009 0.1,-0.065C0.055,-0.12 0.032,-0.187 0.032,-0.265C0.032,-0.342 0.055,-0.409 0.1,-0.465C0.145,-0.521 0.213,-0.549 0.304,-0.549C0.396,-0.549 0.464,-0.521 0.509,-0.465C0.554,-0.409 0.576,-0.342 0.576,-0.265Z" style="fill:rgb(193,193,193);fill-rule:nonzero;"/>
            </g>
            <g transform="matrix(32,0,0,32,363.636,85.638)">
                <path d="M0.36,-0.545C0.415,-0.545 0.46,-0.531 0.495,-0.502C0.53,-0.473 0.547,-0.425 0.547,-0.358L0.547,-0L0.405,-0L0.405,-0.324C0.405,-0.352 0.401,-0.373 0.394,-0.388C0.38,-0.416 0.354,-0.429 0.315,-0.429C0.268,-0.429 0.236,-0.409 0.218,-0.369C0.209,-0.348 0.205,-0.321 0.205,-0.288L0.205,-0L0.066,-0L0.066,-0.531L0.2,-0.531L0.2,-0.454C0.218,-0.481 0.235,-0.501 0.251,-0.513C0.28,-0.534 0.316,-0.545 0.36,-0.545Z" style="fill:rgb(193,193,193);fill-rule:nonzero;"/>
            </g>
            <g transform="matrix(32,0,0,32,382.223,85.638)">
                <path d="M0.173,-0.17C0.176,-0.145 0.183,-0.128 0.192,-0.117C0.21,-0.099 0.242,-0.089 0.288,-0.089C0.315,-0.089 0.337,-0.093 0.353,-0.102C0.369,-0.11 0.377,-0.122 0.377,-0.138C0.377,-0.154 0.371,-0.166 0.358,-0.174C0.345,-0.182 0.297,-0.196 0.213,-0.216C0.153,-0.231 0.11,-0.25 0.085,-0.272C0.061,-0.294 0.048,-0.326 0.048,-0.368C0.048,-0.417 0.068,-0.459 0.106,-0.494C0.145,-0.53 0.199,-0.547 0.269,-0.547C0.335,-0.547 0.39,-0.534 0.431,-0.508C0.473,-0.481 0.497,-0.435 0.503,-0.37L0.364,-0.37C0.362,-0.388 0.357,-0.402 0.349,-0.413C0.334,-0.431 0.308,-0.441 0.271,-0.441C0.241,-0.441 0.219,-0.436 0.206,-0.427C0.193,-0.417 0.187,-0.406 0.187,-0.394C0.187,-0.378 0.194,-0.366 0.208,-0.359C0.221,-0.351 0.27,-0.339 0.353,-0.32C0.408,-0.307 0.449,-0.288 0.477,-0.261C0.504,-0.235 0.518,-0.201 0.518,-0.161C0.518,-0.108 0.498,-0.065 0.459,-0.032C0.42,0.001 0.359,0.018 0.277,0.018C0.194,0.018 0.132,0 0.092,-0.035C0.052,-0.07 0.032,-0.115 0.032,-0.17L0.173,-0.17Z" style="fill:rgb(193,193,193);fill-rule:nonzero;"/>
            </g>
            <g transform="matrix(32,0,0,32,399.06,85.638)">
                <path d="M0.208,-0.596L0.067,-0.596L0.067,-0.724L0.208,-0.724L0.208,-0.596ZM0.067,-0.532L0.208,-0.532L0.208,-0L0.067,-0L0.067,-0.532Z" style="fill:rgb(193,193,193);fill-rule:nonzero;"/>
            </g>
            <g transform="matrix(32,0,0,32,406.991,85.638)">
                <path d="M0.393,-0.532L0.542,-0.532L0.351,-0L0.204,-0L0.013,-0.532L0.169,-0.532L0.28,-0.14L0.393,-0.532Z" style="fill:rgb(193,193,193);fill-rule:nonzero;"/>
            </g>
            <g transform="matrix(32,0,0,32,423.828,85.638)">
                <path d="M0.275,-0.432C0.243,-0.432 0.218,-0.422 0.2,-0.401C0.182,-0.381 0.171,-0.354 0.167,-0.319L0.383,-0.319C0.381,-0.356 0.369,-0.384 0.349,-0.403C0.329,-0.422 0.305,-0.432 0.275,-0.432ZM0.275,-0.546C0.319,-0.546 0.359,-0.538 0.395,-0.521C0.43,-0.505 0.459,-0.479 0.482,-0.443C0.503,-0.411 0.517,-0.375 0.523,-0.333C0.527,-0.309 0.528,-0.273 0.527,-0.228L0.163,-0.228C0.165,-0.174 0.182,-0.137 0.213,-0.115C0.233,-0.102 0.256,-0.095 0.283,-0.095C0.311,-0.095 0.335,-0.103 0.353,-0.12C0.362,-0.128 0.371,-0.141 0.378,-0.156L0.521,-0.156C0.517,-0.125 0.5,-0.093 0.471,-0.06C0.426,-0.008 0.362,0.018 0.28,0.018C0.212,0.018 0.152,-0.004 0.101,-0.048C0.049,-0.091 0.023,-0.162 0.023,-0.261C0.023,-0.353 0.046,-0.424 0.093,-0.473C0.14,-0.522 0.2,-0.546 0.275,-0.546Z" style="fill:rgb(193,193,193);fill-rule:nonzero;"/>
            </g>
            <g transform="matrix(32,0,0,32,270.64,117.638)">
                <path d="M0.227,-0.595L0.227,-0.401L0.397,-0.401C0.431,-0.401 0.456,-0.405 0.473,-0.413C0.503,-0.427 0.518,-0.454 0.518,-0.494C0.518,-0.538 0.504,-0.567 0.475,-0.582C0.458,-0.59 0.434,-0.595 0.401,-0.595L0.227,-0.595ZM0.433,-0.72C0.483,-0.719 0.522,-0.713 0.549,-0.701C0.576,-0.69 0.599,-0.673 0.618,-0.651C0.634,-0.633 0.646,-0.612 0.655,-0.59C0.664,-0.568 0.669,-0.543 0.669,-0.515C0.669,-0.48 0.66,-0.447 0.643,-0.414C0.626,-0.381 0.597,-0.357 0.558,-0.344C0.591,-0.33 0.614,-0.311 0.628,-0.287C0.642,-0.262 0.649,-0.225 0.649,-0.174L0.649,-0.126C0.649,-0.093 0.65,-0.071 0.653,-0.059C0.657,-0.041 0.666,-0.027 0.68,-0.018L0.68,-0L0.515,-0C0.51,-0.016 0.507,-0.029 0.505,-0.039C0.501,-0.059 0.499,-0.079 0.499,-0.101L0.498,-0.167C0.497,-0.213 0.489,-0.244 0.472,-0.259C0.456,-0.275 0.426,-0.282 0.382,-0.282L0.227,-0.282L0.227,-0L0.08,-0L0.08,-0.72L0.433,-0.72Z" style="fill:rgb(193,193,193);fill-rule:nonzero;"/>
            </g>
            <g transform="matrix(32,0,0,32,292.789,117.638)">
                <path d="M0.275,-0.432C0.243,-0.432 0.218,-0.422 0.2,-0.401C0.182,-0.381 0.171,-0.354 0.167,-0.319L0.383,-0.319C0.381,-0.356 0.369,-0.384 0.349,-0.403C0.329,-0.422 0.305,-0.432 0.275,-0.432ZM0.275,-0.546C0.319,-0.546 0.359,-0.538 0.395,-0.521C0.43,-0.505 0.459,-0.479 0.482,-0.443C0.503,-0.411 0.517,-0.375 0.523,-0.333C0.527,-0.309 0.528,-0.273 0.527,-0.228L0.163,-0.228C0.165,-0.174 0.182,-0.137 0.213,-0.115C0.233,-0.102 0.256,-0.095 0.283,-0.095C0.311,-0.095 0.335,-0.103 0.353,-0.12C0.362,-0.128 0.371,-0.141 0.378,-0.156L0.521,-0.156C0.517,-0.125 0.5,-0.093 0.471,-0.06C0.426,-0.008 0.362,0.018 0.28,0.018C0.212,0.018 0.152,-0.004 0.101,-0.048C0.049,-0.091 0.023,-0.162 0.023,-0.261C0.023,-0.353 0.046,-0.424 0.093,-0.473C0.14,-0.522 0.2,-0.546 0.275,-0.546Z" style="fill:rgb(193,193,193);fill-rule:nonzero;"/>
            </g>
            <g transform="matrix(32,0,0,32,309.626,117.638)">
                <path d="M0.358,-0.259C0.35,-0.253 0.341,-0.249 0.332,-0.245C0.323,-0.242 0.311,-0.239 0.295,-0.236L0.264,-0.23C0.234,-0.225 0.213,-0.218 0.201,-0.211C0.179,-0.198 0.168,-0.179 0.168,-0.152C0.168,-0.128 0.175,-0.111 0.188,-0.1C0.201,-0.09 0.217,-0.084 0.236,-0.084C0.266,-0.084 0.294,-0.093 0.319,-0.111C0.344,-0.128 0.357,-0.16 0.358,-0.207L0.358,-0.259ZM0.274,-0.324C0.3,-0.327 0.318,-0.331 0.329,-0.336C0.349,-0.344 0.359,-0.358 0.359,-0.375C0.359,-0.397 0.351,-0.412 0.336,-0.421C0.321,-0.429 0.299,-0.433 0.27,-0.433C0.237,-0.433 0.213,-0.425 0.2,-0.409C0.19,-0.397 0.183,-0.38 0.18,-0.36L0.046,-0.36C0.049,-0.406 0.062,-0.445 0.085,-0.475C0.122,-0.521 0.185,-0.545 0.274,-0.545C0.333,-0.545 0.384,-0.533 0.43,-0.51C0.475,-0.487 0.498,-0.444 0.498,-0.379L0.498,-0.135C0.498,-0.118 0.498,-0.098 0.499,-0.074C0.5,-0.056 0.502,-0.043 0.507,-0.037C0.511,-0.03 0.518,-0.025 0.527,-0.021L0.527,-0L0.376,-0C0.372,-0.011 0.369,-0.021 0.367,-0.03C0.366,-0.04 0.364,-0.05 0.363,-0.063C0.344,-0.042 0.322,-0.024 0.297,-0.009C0.267,0.008 0.233,0.017 0.195,0.017C0.147,0.017 0.107,0.003 0.076,-0.025C0.045,-0.052 0.029,-0.091 0.029,-0.142C0.029,-0.207 0.054,-0.254 0.104,-0.284C0.132,-0.3 0.173,-0.311 0.227,-0.318L0.274,-0.324Z" style="fill:rgb(193,193,193);fill-rule:nonzero;"/>
            </g>
            <g transform="matrix(32,0,0,32,326.463,117.638)">
                <path d="M0.383,-0.341C0.38,-0.361 0.374,-0.379 0.363,-0.395C0.347,-0.417 0.323,-0.427 0.29,-0.427C0.243,-0.427 0.211,-0.404 0.194,-0.357C0.185,-0.333 0.18,-0.3 0.18,-0.259C0.18,-0.22 0.185,-0.188 0.194,-0.165C0.21,-0.12 0.242,-0.098 0.288,-0.098C0.32,-0.098 0.343,-0.107 0.357,-0.125C0.371,-0.142 0.379,-0.165 0.382,-0.193L0.524,-0.193C0.521,-0.151 0.505,-0.111 0.478,-0.073C0.434,-0.012 0.37,0.019 0.284,0.019C0.199,0.019 0.136,-0.007 0.095,-0.058C0.055,-0.108 0.035,-0.174 0.035,-0.255C0.035,-0.347 0.057,-0.418 0.102,-0.469C0.146,-0.52 0.208,-0.545 0.286,-0.545C0.353,-0.545 0.407,-0.53 0.45,-0.5C0.492,-0.47 0.518,-0.417 0.525,-0.341L0.383,-0.341Z" style="fill:rgb(193,193,193);fill-rule:nonzero;"/>
            </g>
            <g transform="matrix(32,0,0,32,343.3,117.638)">
                <path d="M0.01,-0.428L0.01,-0.527L0.084,-0.527L0.084,-0.676L0.222,-0.676L0.222,-0.527L0.309,-0.527L0.309,-0.428L0.222,-0.428L0.222,-0.147C0.222,-0.125 0.225,-0.112 0.23,-0.106C0.236,-0.101 0.253,-0.098 0.281,-0.098C0.285,-0.098 0.29,-0.098 0.295,-0.098C0.299,-0.099 0.304,-0.099 0.309,-0.099L0.309,0.005L0.243,0.007C0.177,0.01 0.132,-0.002 0.108,-0.027C0.092,-0.043 0.084,-0.067 0.084,-0.101L0.084,-0.428L0.01,-0.428Z" style="fill:rgb(193,193,193);fill-rule:nonzero;"/>
            </g>
            <g transform="matrix(32,0,0,32,352.996,117.638)">
                <path d="M0.208,-0.596L0.067,-0.596L0.067,-0.724L0.208,-0.724L0.208,-0.596ZM0.067,-0.532L0.208,-0.532L0.208,-0L0.067,-0L0.067,-0.532Z" style="fill:rgb(193,193,193);fill-rule:nonzero;"/>
            </g>
            <g transform="matrix(32,0,0,32,360.926,117.638)">
                <path d="M0.393,-0.532L0.542,-0.532L0.351,-0L0.204,-0L0.013,-0.532L0.169,-0.532L0.28,-0.14L0.393,-0.532Z" style="fill:rgb(193,193,193);fill-rule:nonzero;"/>
            </g>
            <g transform="matrix(32,0,0,32,377.763,117.638)">
                <path d="M0.275,-0.432C0.243,-0.432 0.218,-0.422 0.2,-0.401C0.182,-0.381 0.171,-0.354 0.167,-0.319L0.383,-0.319C0.381,-0.356 0.369,-0.384 0.349,-0.403C0.329,-0.422 0.305,-0.432 0.275,-0.432ZM0.275,-0.546C0.319,-0.546 0.359,-0.538 0.395,-0.521C0.43,-0.505 0.459,-0.479 0.482,-0.443C0.503,-0.411 0.517,-0.375 0.523,-0.333C0.527,-0.309 0.528,-0.273 0.527,-0.228L0.163,-0.228C0.165,-0.174 0.182,-0.137 0.213,-0.115C0.233,-0.102 0.256,-0.095 0.283,-0.095C0.311,-0.095 0.335,-0.103 0.353,-0.12C0.362,-0.128 0.371,-0.141 0.378,-0.156L0.521,-0.156C0.517,-0.125 0.5,-0.093 0.471,-0.06C0.426,-0.008 0.362,0.018 0.28,0.018C0.212,0.018 0.152,-0.004 0.101,-0.048C0.049,-0.091 0.023,-0.162 0.023,-0.261C0.023,-0.353 0.046,-0.424 0.093,-0.473C0.14,-0.522 0.2,-0.546 0.275,-0.546Z" style="fill:rgb(193,193,193);fill-rule:nonzero;"/>
            </g>
        </g>
    </g>
</svg>
