<?xml version="1.0" encoding="utf-8"?>
<!-- Generator: Adobe Illustrator 24.0.1, SVG Export Plug-In . SVG Version: 6.00 Build 0)  -->
<svg version="1.1" xmlns="http://www.w3.org/2000/svg" xmlns:xlink="http://www.w3.org/1999/xlink" x="0px" y="0px"
	 viewBox="0 0 500 500" style="enable-background:new 0 0 500 500;" xml:space="preserve">
<style type="text/css">
	.st0{fill:#FFFFFF;}
	.st1{fill:#D8232A;}
</style>
<g id="face">
	<g>
		<circle class="st0" cx="250" cy="250" r="250"/>
	</g>
	<g>
		<path d="M190.2,135.1v14.2h-2.5v-14.2h-3.8v-2.4H194v2.4H190.2z"/>
		<path d="M207.6,145.3h-7.1l-1.8,4H196l8.2-17.6l7.9,17.6h-2.7L207.6,145.3z M206.6,142.9l-2.5-5.6l-2.6,5.6H206.6z"/>
		<path d="M219.4,132.7v14.2h4.9v2.4h-7.4v-16.6H219.4z"/>
		<path d="M231.7,139.3l6.5-6.6h3.3l-7.5,7.5l7.5,9.1h-3.4l-6-7.4l-0.5,0.5v6.9h-2.5v-16.6h2.5V139.3z"/>
		<path d="M257.1,145.3H250l-1.8,4h-2.7l8.2-17.6l7.9,17.6h-2.7L257.1,145.3z M256,142.9l-2.5-5.6l-2.6,5.6H256z"/>
		<path d="M269.8,135.1v14.2h-2.5v-14.2h-3.8v-2.4h10.1v2.4H269.8z"/>
		<path d="M281,132.7v16.6h-2.5v-16.6H281z"/>
		<path d="M288.4,132.7l4.6,11.5l4.7-11.5h2.7l-7.4,17.8l-7.3-17.8H288.4z"/>
		<path d="M314.2,135.1h-6.7v4h6.5v2.4h-6.5v5.5h6.7v2.4h-9.2v-16.6h9.2V135.1z"/>
	</g>
	<g>
		<path d="M182.6,480.6c0.3-1,0.9-1.8,1.8-2.3c0.9-0.5,1.9-0.7,3-0.4c1,0.3,1.8,0.9,2.4,1.8c0.5,0.9,0.7,1.9,0.4,3
			c-0.3,1-0.9,1.8-1.9,2.4c-1,0.5-2,0.6-3,0.4c-0.9-0.3-1.7-0.8-2.3-1.7C182.4,482.9,182.3,481.8,182.6,480.6z M183.7,481
			c-0.2,0.8-0.1,1.5,0.3,2.2c0.4,0.7,0.9,1.1,1.6,1.3c0.8,0.2,1.5,0.1,2.1-0.3c0.7-0.4,1.1-1,1.3-1.7c0.2-0.8,0.1-1.5-0.2-2.2
			c-0.4-0.7-0.9-1.1-1.7-1.3c-0.8-0.2-1.5-0.1-2.1,0.3C184.3,479.6,183.9,480.2,183.7,481z"/>
		<path d="M197,481.6l-2.6-0.6l-0.4,1.8l2.5,0.6l-0.2,1l-2.5-0.6l-0.8,3.5l-1.1-0.3l1.7-7.3l3.7,0.9L197,481.6z"/>
		<path d="M202.9,482.9l-2.6-0.5l-0.4,1.8l2.5,0.5l-0.2,1l-2.5-0.5l-0.7,3.5l-1.1-0.2l1.6-7.4l3.7,0.8L202.9,482.9z"/>
		<path d="M206.6,482.5l-1.4,7.4l-1.1-0.2l1.4-7.4L206.6,482.5z"/>
		<path d="M214.8,484.3l-0.2,1.3c-0.6-0.6-1.2-1-1.9-1.1c-0.8-0.1-1.5,0-2.1,0.5c-0.6,0.5-1,1.1-1.1,1.9c-0.1,0.8,0,1.5,0.5,2.1
			c0.4,0.6,1,1,1.8,1.1c0.4,0.1,0.7,0.1,1,0c0.2,0,0.3-0.1,0.5-0.2c0.2-0.1,0.4-0.2,0.6-0.3l-0.2,1.4c-0.7,0.3-1.4,0.3-2.1,0.2
			c-1.1-0.2-1.9-0.7-2.5-1.6c-0.6-0.9-0.9-1.8-0.7-2.9c0.2-0.9,0.6-1.7,1.3-2.4c0.9-0.8,2-1.1,3.2-0.9
			C213.7,483.5,214.3,483.8,214.8,484.3z"/>
		<path d="M218.6,484.4l-1,7.5l-1.1-0.2l1-7.5L218.6,484.4z"/>
		<path d="M225.3,490.9l-3.2-0.3l-1,1.7l-1.2-0.1l4.6-7.6l2.7,8.4l-1.2-0.1L225.3,490.9z M224.9,489.8l-0.8-2.7l-1.4,2.4
			L224.9,489.8z"/>
		<path d="M231.1,485.7l-0.5,6.5l2.2,0.2l-0.1,1.1l-3.3-0.3l0.6-7.5L231.1,485.7z"/>
		<path d="M238.9,490c0-1.1,0.4-2,1.2-2.7c0.8-0.7,1.7-1.1,2.8-1.1c1.1,0,2,0.4,2.7,1.2c0.7,0.8,1.1,1.7,1.1,2.8
			c0,1.1-0.4,2-1.2,2.7c-0.8,0.7-1.8,1.1-2.8,1.1c-1,0-1.8-0.4-2.6-1.1C239.3,492.2,238.9,491.2,238.9,490z M240,490
			c0,0.8,0.2,1.5,0.8,2.1c0.5,0.6,1.2,0.8,1.9,0.9c0.8,0,1.5-0.2,2-0.8c0.6-0.5,0.9-1.2,0.9-2c0-0.8-0.2-1.5-0.7-2
			c-0.5-0.6-1.2-0.9-2-0.9c-0.8,0-1.5,0.2-2,0.8C240.4,488.6,240.1,489.2,240,490z"/>
		<path d="M253.2,487.5l-2.6,0l0,1.8l2.5,0l0,1.1l-2.5,0l0.1,3.6l-1.1,0l-0.1-7.5l3.8-0.1L253.2,487.5z"/>
		<path d="M259.4,487.4l-2.6,0.1l0.1,1.8l2.5-0.1l0,1.1l-2.5,0.1l0.1,3.6l-1.1,0l-0.2-7.5l3.8-0.1L259.4,487.4z"/>
		<path d="M262.8,486.1l0.4,7.5l-1.1,0.1l-0.4-7.5L262.8,486.1z"/>
		<path d="M271.3,485.9l0.1,1.3c-0.7-0.5-1.4-0.7-2.1-0.7c-0.8,0.1-1.4,0.4-1.9,1c-0.5,0.6-0.7,1.3-0.6,2.1c0.1,0.8,0.4,1.4,1,1.9
			c0.6,0.5,1.2,0.7,2,0.7c0.4,0,0.7-0.1,1-0.3c0.2-0.1,0.3-0.2,0.5-0.3c0.2-0.1,0.3-0.3,0.5-0.4l0.1,1.4c-0.6,0.4-1.3,0.7-2,0.7
			c-1.1,0.1-2-0.2-2.8-0.9c-0.8-0.7-1.3-1.6-1.3-2.6c-0.1-1,0.2-1.8,0.8-2.6c0.7-1,1.7-1.5,2.9-1.6
			C270,485.5,270.7,485.6,271.3,485.9z"/>
		<path d="M278.1,485.9l-3,0.3l0.2,1.8l2.9-0.3l0.1,1.1l-2.9,0.3l0.3,2.5l3-0.3l0.1,1.1l-4.1,0.4l-0.8-7.5l4.1-0.4L278.1,485.9z"/>
		<path d="M290,483.5l0.2,1.3c-0.7-0.4-1.5-0.6-2.1-0.5c-0.8,0.1-1.4,0.5-1.8,1.1c-0.4,0.6-0.6,1.3-0.5,2.1c0.1,0.8,0.5,1.4,1.1,1.9
			c0.6,0.5,1.3,0.6,2.1,0.5c0.4-0.1,0.7-0.2,1-0.4c0.1-0.1,0.3-0.2,0.4-0.3c0.1-0.1,0.3-0.3,0.5-0.5l0.2,1.4
			c-0.6,0.5-1.2,0.8-1.9,0.9c-1.1,0.2-2-0.1-2.9-0.7c-0.9-0.6-1.4-1.5-1.5-2.5c-0.1-0.9,0-1.8,0.5-2.7c0.6-1,1.6-1.6,2.8-1.8
			C288.6,483.2,289.3,483.3,290,483.5z"/>
		<path d="M293.6,482.5l1.2,6.4l2.2-0.4l0.2,1.1l-3.3,0.6l-1.4-7.4L293.6,482.5z"/>
		<path d="M297.9,485.4c-0.2-1,0-2,0.6-2.9c0.6-0.9,1.4-1.5,2.5-1.7c1-0.2,2-0.1,2.9,0.5c0.9,0.6,1.5,1.4,1.7,2.5
			c0.2,1.1,0.1,2-0.5,2.9c-0.6,0.9-1.4,1.5-2.5,1.7c-1,0.2-1.9,0.1-2.8-0.4C298.8,487.5,298.2,486.6,297.9,485.4z M299.1,485.2
			c0.2,0.8,0.6,1.4,1.3,1.8c0.7,0.4,1.3,0.5,2.1,0.4c0.8-0.2,1.4-0.6,1.8-1.2c0.4-0.7,0.5-1.4,0.4-2.1c-0.2-0.8-0.6-1.4-1.2-1.8
			c-0.6-0.4-1.3-0.5-2.1-0.4c-0.8,0.2-1.4,0.6-1.8,1.2C299,483.7,298.9,484.4,299.1,485.2z"/>
		<path d="M312.7,478.5l0.3,1.3c-0.8-0.4-1.5-0.5-2.2-0.3c-0.7,0.2-1.3,0.6-1.7,1.3c-0.4,0.7-0.5,1.4-0.3,2.2
			c0.2,0.8,0.6,1.3,1.3,1.7c0.7,0.4,1.4,0.5,2.1,0.3c0.4-0.1,0.7-0.2,0.9-0.4c0.1-0.1,0.3-0.2,0.4-0.4c0.1-0.1,0.3-0.3,0.4-0.5
			l0.3,1.3c-0.5,0.5-1.2,0.9-1.8,1.1c-1,0.3-2,0.1-3-0.4c-0.9-0.5-1.5-1.3-1.8-2.4c-0.2-0.9-0.1-1.8,0.3-2.7
			c0.5-1.1,1.4-1.8,2.6-2.1C311.3,478.3,311.9,478.3,312.7,478.5z"/>
		<path d="M316.9,480l2-3.7l1.5-0.4l-2.3,4.2l4.5,3l-1.5,0.4l-3.6-2.4l-0.2,0.3l0.9,3l-1.1,0.3l-2.1-7.2l1.1-0.3L316.9,480z"/>
	</g>
</g>
<g id="minute-marks">
	<rect x="247" y="18" width="6" height="16"/>
	<rect x="223.6" y="19.2" transform="matrix(0.9945 -0.1045 0.1045 0.9945 -1.6047 23.8338)" width="6" height="16"/>
	<rect x="200.4" y="22.9" transform="matrix(0.9781 -0.2079 0.2079 0.9781 -1.978 42.9701)" width="6" height="16"/>
	<rect x="177.8" y="29" transform="matrix(0.9511 -0.309 0.309 0.9511 -2.5743 57.6733)" width="6" height="16"/>
	<rect x="155.9" y="37.4" transform="matrix(0.9135 -0.4067 0.4067 0.9135 -4.7151 68.5489)" width="6" height="16"/>
	<rect x="135" y="48" transform="matrix(0.866 -0.5 0.5 0.866 -9.5167 76.504)" width="6" height="16"/>
	<rect x="115.3" y="60.8" transform="matrix(0.809 -0.5878 0.5878 0.809 -17.8278 82.6921)" width="6" height="16"/>
	<rect x="97.1" y="75.5" transform="matrix(0.7431 -0.6691 0.6691 0.7431 -30.1812 88.4464)" width="6" height="16"/>
	<rect x="80.5" y="92.1" transform="matrix(0.6691 -0.7431 0.7431 0.6691 -46.7604 95.2039)" width="6" height="16"/>
	<rect x="65.8" y="110.3" transform="matrix(0.5878 -0.809 0.809 0.5878 -67.3837 104.4242)" width="6" height="16"/>
	<rect x="53" y="130" transform="matrix(0.5 -0.866 0.866 0.5 -91.5063 117.5063)" width="6" height="16"/>
	<rect x="42.4" y="150.9" transform="matrix(0.4067 -0.9135 0.9135 0.4067 -118.2403 135.7079)" width="6" height="16"/>
	<rect x="34" y="172.8" transform="matrix(0.309 -0.9511 0.9511 0.309 -146.3911 160.0703)" width="6" height="16"/>
	<rect x="27.9" y="195.4" transform="matrix(0.2079 -0.9781 0.9781 0.2079 -174.5109 191.3526)" width="6" height="16"/>
	<rect x="24.2" y="218.6" transform="matrix(0.1045 -0.9945 0.9945 0.1045 -200.9633 229.9789)" width="6" height="16"/>
	<rect x="23" y="242" transform="matrix(4.486817e-11 -1 1 4.486817e-11 -224 276)" width="6" height="16"/>
	<rect x="24.2" y="265.4" transform="matrix(-0.1045 -0.9945 0.9945 -0.1045 -241.8435 329.0719)" width="6" height="16"/>
	<rect x="27.9" y="288.6" transform="matrix(-0.2079 -0.9781 0.9781 -0.2079 -252.773 388.4529)" width="6" height="16"/>
	<rect x="34" y="311.2" transform="matrix(-0.309 -0.9511 0.9511 -0.309 -255.2104 453.0184)" width="6" height="16"/>
	<rect x="42.4" y="333.1" transform="matrix(-0.4067 -0.9135 0.9135 -0.4067 -247.8008 521.2943)" width="6" height="16"/>
	<rect x="53" y="354" transform="matrix(-0.5 -0.866 0.866 -0.5 -229.4857 591.5063)" width="6" height="16"/>
	<rect x="65.8" y="373.7" transform="matrix(-0.5878 -0.809 0.809 -0.5878 -199.5644 661.6447)" width="6" height="16"/>
	<rect x="80.5" y="391.9" transform="matrix(-0.6691 -0.7431 0.7431 -0.6691 -157.7409 729.5397)" width="6" height="16"/>
	<rect x="97.1" y="408.5" transform="matrix(-0.7431 -0.6691 0.6691 -0.7431 -104.1546 792.9477)" width="6" height="16"/>
	<rect x="115.3" y="423.2" transform="matrix(-0.809 -0.5878 0.5878 -0.809 -39.3926 849.6402)" width="6" height="16"/>
	<rect x="135" y="436" transform="matrix(-0.866 -0.5 0.5 -0.866 35.5167 897.496)" width="6" height="16"/>
	<rect x="155.9" y="446.6" transform="matrix(-0.9135 -0.4067 0.4067 -0.9135 119.1288 934.59)" width="6" height="16"/>
	<rect x="177.8" y="455" transform="matrix(-0.9511 -0.309 0.309 -0.9511 209.6262 959.2748)" width="6" height="16"/>
	<rect x="200.4" y="461.1" transform="matrix(-0.9781 -0.2079 0.2079 -0.9781 304.8777 970.2541)" width="6" height="16"/>
	<rect x="223.6" y="464.8" transform="matrix(-0.9945 -0.1045 0.1045 -0.9945 402.5117 966.6406)" width="6" height="16"/>
	<rect x="247" y="466" transform="matrix(-1 -8.913061e-11 8.913061e-11 -1 500 948)" width="6" height="16"/>
	<rect x="270.4" y="464.8" transform="matrix(-0.9945 0.1045 -0.1045 -0.9945 594.7492 914.3763)" width="6" height="16"/>
	<rect x="293.6" y="461.1" transform="matrix(-0.9781 0.2079 -0.2079 -0.9781 684.196 866.2982)" width="6" height="16"/>
	<rect x="316.2" y="455" transform="matrix(-0.9511 0.309 -0.309 -0.9511 765.9021 804.7664)" width="6" height="16"/>
	<rect x="338.1" y="446.6" transform="matrix(-0.9135 0.4067 -0.4067 -0.9135 837.644 731.2216)" width="6" height="16"/>
	<rect x="359" y="436" transform="matrix(-0.866 0.5 -0.5 -0.866 897.496 647.496)" width="6" height="16"/>
	<rect x="378.7" y="423.2" transform="matrix(-0.809 0.5878 -0.5878 -0.809 943.9011 555.7476)" width="6" height="16"/>
	<rect x="396.9" y="408.5" transform="matrix(-0.7431 0.6691 -0.6691 -0.7431 975.727 458.3824)" width="6" height="16"/>
	<rect x="413.5" y="391.9" transform="matrix(-0.6691 0.7431 -0.7431 -0.6691 992.3062 357.9673)" width="6" height="16"/>
	<rect x="428.2" y="373.7" transform="matrix(-0.5878 0.809 -0.809 -0.5878 993.457 257.1362)" width="6" height="16"/>
	<rect x="441" y="354" transform="matrix(-0.5 0.866 -0.866 -0.5 979.4857 158.4937)" width="6" height="16"/>
	<rect x="451.6" y="333.1" transform="matrix(-0.4067 0.9135 -0.9135 -0.4067 951.1691 64.5215)" width="6" height="16"/>
	<rect x="460" y="311.2" transform="matrix(-0.309 0.9511 -0.9511 -0.309 909.7189 -22.5099)" width="6" height="16"/>
	<rect x="466.1" y="288.6" transform="matrix(-0.2079 0.9781 -0.9781 -0.2079 856.7289 -100.6209)" width="6" height="16"/>
	<rect x="469.8" y="265.4" transform="matrix(-0.1045 0.9945 -0.9945 -0.1045 794.1077 -168.189)" width="6" height="16"/>
	<rect x="471" y="242" transform="matrix(-1.339988e-10 1 -1 -1.339988e-10 724 -224)" width="6" height="16"/>
	<rect x="469.8" y="218.6" transform="matrix(0.1045 0.9945 -0.9945 0.1045 648.699 -267.282)" width="6" height="16"/>
	<rect x="466.1" y="195.4" transform="matrix(0.2079 0.9781 -0.9781 0.2079 570.5551 -297.7212)" width="6" height="16"/>
	<rect x="460" y="172.8" transform="matrix(0.309 0.9511 -0.9511 0.309 491.8826 -315.458)" width="6" height="16"/>
	<rect x="451.6" y="150.9" transform="matrix(0.4067 0.9135 -0.9135 0.4067 414.8719 -321.0648)" width="6" height="16"/>
	<rect x="441" y="130" transform="matrix(0.5 0.866 -0.866 0.5 341.5063 -315.5063)" width="6" height="16"/>
	<rect x="428.2" y="110.3" transform="matrix(0.5878 0.809 -0.809 0.5878 273.4911 -300.0843)" width="6" height="16"/>
	<rect x="413.5" y="92.1" transform="matrix(0.6691 0.7431 -0.7431 0.6691 212.1951 -276.3685)" width="6" height="16"/>
	<rect x="396.9" y="75.5" transform="matrix(0.7431 0.6691 -0.6691 0.7431 158.6088 -246.1189)" width="6" height="16"/>
	<rect x="378.7" y="60.8" transform="matrix(0.809 0.5878 -0.5878 0.809 113.3193 -211.2006)" width="6" height="16"/>
	<rect x="359" y="48" transform="matrix(0.866 0.5 -0.5 0.866 76.504 -173.496)" width="6" height="16"/>
	<rect x="338.1" y="37.4" transform="matrix(0.9135 0.4067 -0.4067 0.9135 47.9424 -134.8195)" width="6" height="16"/>
	<rect x="316.2" y="29" transform="matrix(0.9511 0.309 -0.309 0.9511 27.046 -96.8352)" width="6" height="16"/>
	<rect x="293.6" y="22.9" transform="matrix(0.9781 0.2079 -0.2079 0.9781 12.9042 -60.9857)" width="6" height="16"/>
	<rect x="270.4" y="19.2" transform="matrix(0.9945 0.1045 -0.1045 0.9945 4.3438 -28.4304)" width="6" height="16"/>
</g>
<g id="hour-marks">
	<rect x="242" y="18" width="16" height="57"/>
	<rect x="140.2" y="45.3" transform="matrix(0.866 -0.5 0.5 0.866 -17.0202 84.0075)" width="16" height="57"/>
	<rect x="65.8" y="119.8" transform="matrix(0.5 -0.866 0.866 0.5 -91.5063 138.0063)" width="16" height="57"/>
	<rect x="38.5" y="221.5" transform="matrix(4.479268e-11 -1 1 4.479268e-11 -203.5 296.5)" width="16" height="57"/>
	<rect x="65.8" y="323.2" transform="matrix(-0.5 -0.866 0.866 -0.5 -193.9787 591.5063)" width="16" height="57"/>
	<rect x="140.2" y="397.7" transform="matrix(-0.866 -0.5 0.5 -0.866 63.5202 869.4925)" width="16" height="57"/>
	<rect x="242" y="425" transform="matrix(-1 -8.981273e-11 8.981273e-11 -1 500 907)" width="16" height="57"/>
	<rect x="343.8" y="397.7" transform="matrix(-0.866 0.5 -0.5 -0.866 869.4925 619.4925)" width="16" height="57"/>
	<rect x="418.2" y="323.2" transform="matrix(-0.5 0.866 -0.866 -0.5 943.9787 158.4937)" width="16" height="57"/>
	<rect x="445.5" y="221.5" transform="matrix(-1.348328e-10 1 -1 -1.348328e-10 703.5 -203.5)" width="16" height="57"/>
	<rect x="418.2" y="119.8" transform="matrix(0.5 0.866 -0.866 0.5 341.5063 -295.0063)" width="16" height="57"/>
	<rect x="343.8" y="45.3" transform="matrix(0.866 0.5 -0.5 0.866 84.0075 -165.9925)" width="16" height="57"/>
</g>
<g id="hour-hand">
	<polygon points="265,304 235,304 238,92 262,92 	"/>
</g>
<g id="minute-hand">
	<polygon points="265,304 235,304 240,28 260,28 	"/>
</g>
<g id="second-hand">
	<path class="st1" d="M268,98c0-9.9-8.1-18-18-18s-18,8.1-18,18c0,8.9,6.5,16.3,15,17.7v125.8c-3.5,1.2-6,4.6-6,8.5
		c0,3.9,2.5,7.2,6,8.5V329h6v-70.5c3.5-1.2,6-4.6,6-8.5c0-3.9-2.5-7.2-6-8.5V115.7C261.5,114.3,268,106.9,268,98z"/>
</g>
</svg>
